<svg xmlns="http://www.w3.org/2000/svg" width="96" height="96" viewBox="0 0 256 256"><g stroke-miterlimit="10" font-family="none" font-size="none" font-weight="none" text-anchor="none"><path fill="#fff" d="M-91.429 347.429V-91.43H347.43V347.43z" style="mix-blend-mode:normal" transform="translate(53.333 53.333) scale(.58333)"/><path d="M12 2C6.489 2 2 6.489 2 12s4.489 10 10 10 10-4.489 10-10S17.511 2 12 2zm0 2c4.43 0 8 3.57 8 8s-3.57 8-8 8-8-3.57-8-8 3.57-8 8-8zm-1 3v4H7v2h4v4h2v-4h4v-2h-4V7z" style="mix-blend-mode:normal" transform="matrix(6.22219 0 0 6.22219 115.555 53.333)"/></g></svg>